<mxfile host="65bd71144e">
    <diagram id="9PdyP9MILgwPvJu1e36a" name="ページ1">
        <mxGraphModel dx="796" dy="493" grid="1" gridSize="5" guides="1" tooltips="1" connect="1" arrows="1" fold="1" page="1" pageScale="1" pageWidth="1169" pageHeight="827" background="none" math="0" shadow="0">
            <root>
                <mxCell id="0"/>
                <mxCell id="1" parent="0"/>
                <mxCell id="4" value="" style="rounded=0;whiteSpace=wrap;html=1;fillColor=none;" parent="1" vertex="1">
                    <mxGeometry x="335" y="490" width="70" height="35" as="geometry"/>
                </mxCell>
                <mxCell id="6" value="" style="pointerEvents=1;verticalLabelPosition=bottom;shadow=0;dashed=0;align=center;html=1;verticalAlign=top;shape=mxgraph.electrical.electro-mechanical.relay;fillColor=none;direction=south;" parent="1" vertex="1">
                    <mxGeometry x="345" y="495" width="12.5" height="25" as="geometry"/>
                </mxCell>
                <mxCell id="7" value="MPP" style="rounded=1;whiteSpace=wrap;html=1;strokeWidth=2;fillColor=none;strokeColor=#009900;" parent="1" vertex="1">
                    <mxGeometry x="265" y="345" width="90" height="45" as="geometry"/>
                </mxCell>
                <mxCell id="8" value="" style="endArrow=none;html=1;strokeWidth=3;" parent="1" edge="1">
                    <mxGeometry width="50" height="50" relative="1" as="geometry">
                        <mxPoint x="290" y="560" as="sourcePoint"/>
                        <mxPoint x="290" y="390" as="targetPoint"/>
                    </mxGeometry>
                </mxCell>
                <mxCell id="9" value="" style="endArrow=none;html=1;strokeWidth=3;" parent="1" edge="1">
                    <mxGeometry width="50" height="50" relative="1" as="geometry">
                        <mxPoint x="290" y="469" as="sourcePoint"/>
                        <mxPoint x="370" y="469" as="targetPoint"/>
                    </mxGeometry>
                </mxCell>
                <mxCell id="10" value="" style="endArrow=none;html=1;strokeWidth=3;" parent="1" edge="1">
                    <mxGeometry width="50" height="50" relative="1" as="geometry">
                        <mxPoint x="385" y="469" as="sourcePoint"/>
                        <mxPoint x="435" y="469" as="targetPoint"/>
                    </mxGeometry>
                </mxCell>
                <mxCell id="11" value="" style="endArrow=none;html=1;strokeWidth=3;" parent="1" edge="1">
                    <mxGeometry width="50" height="50" relative="1" as="geometry">
                        <mxPoint x="420" y="469" as="sourcePoint"/>
                        <mxPoint x="420" y="560" as="targetPoint"/>
                    </mxGeometry>
                </mxCell>
                <mxCell id="12" value="" style="pointerEvents=1;verticalLabelPosition=bottom;shadow=0;dashed=0;align=center;html=1;verticalAlign=top;shape=mxgraph.electrical.signal_sources.signal_ground;fillColor=none;" parent="1" vertex="1">
                    <mxGeometry x="350" y="538" width="15" height="10" as="geometry"/>
                </mxCell>
                <mxCell id="13" value="" style="endArrow=none;html=1;strokeWidth=1;entryX=0.5;entryY=0;entryDx=0;entryDy=0;entryPerimeter=0;exitX=0.5;exitY=0;exitDx=0;exitDy=0;exitPerimeter=0;" parent="1" source="12" target="6" edge="1">
                    <mxGeometry width="50" height="50" relative="1" as="geometry">
                        <mxPoint x="495" y="470" as="sourcePoint"/>
                        <mxPoint x="545" y="420" as="targetPoint"/>
                    </mxGeometry>
                </mxCell>
                <mxCell id="14" value="" style="endArrow=none;html=1;strokeWidth=1;entryX=0.5;entryY=1;entryDx=0;entryDy=0;entryPerimeter=0;" parent="1" target="6" edge="1">
                    <mxGeometry width="50" height="50" relative="1" as="geometry">
                        <mxPoint x="155" y="508" as="sourcePoint"/>
                        <mxPoint x="362.5" y="512.5" as="targetPoint"/>
                    </mxGeometry>
                </mxCell>
                <mxCell id="15" value="" style="pointerEvents=1;verticalLabelPosition=bottom;shadow=0;dashed=0;align=center;html=1;verticalAlign=top;shape=mxgraph.electrical.resistors.resistor_2;fillColor=none;" parent="1" vertex="1">
                    <mxGeometry x="435" y="465" width="35" height="7" as="geometry"/>
                </mxCell>
                <mxCell id="16" value="" style="endArrow=none;html=1;strokeWidth=3;" parent="1" edge="1">
                    <mxGeometry width="50" height="50" relative="1" as="geometry">
                        <mxPoint x="420" y="494" as="sourcePoint"/>
                        <mxPoint x="435" y="494" as="targetPoint"/>
                    </mxGeometry>
                </mxCell>
                <mxCell id="17" value="&lt;div style=&quot;&quot;&gt;&lt;span style=&quot;background-color: initial; white-space-collapse: preserve;&quot;&gt;&#9;&lt;/span&gt;&lt;span style=&quot;background-color: initial; white-space-collapse: preserve;&quot;&gt;&#9;&lt;/span&gt;&lt;/div&gt;" style="pointerEvents=1;fillColor=strokeColor;verticalLabelPosition=bottom;shadow=0;dashed=0;align=center;html=1;verticalAlign=top;shape=mxgraph.electrical.diodes.diode;" parent="1" vertex="1">
                    <mxGeometry x="435" y="486.5" width="25" height="15" as="geometry"/>
                </mxCell>
                <mxCell id="18" value="" style="endArrow=none;html=1;strokeWidth=3;" parent="1" edge="1">
                    <mxGeometry width="50" height="50" relative="1" as="geometry">
                        <mxPoint x="471" y="468" as="sourcePoint"/>
                        <mxPoint x="470" y="600" as="targetPoint"/>
                    </mxGeometry>
                </mxCell>
                <mxCell id="19" value="" style="endArrow=none;html=1;strokeWidth=3;exitX=1;exitY=0.5;exitDx=0;exitDy=0;exitPerimeter=0;" parent="1" source="17" edge="1">
                    <mxGeometry width="50" height="50" relative="1" as="geometry">
                        <mxPoint x="405" y="485" as="sourcePoint"/>
                        <mxPoint x="470" y="494" as="targetPoint"/>
                    </mxGeometry>
                </mxCell>
                <mxCell id="20" value="" style="pointerEvents=1;verticalLabelPosition=bottom;shadow=0;dashed=0;align=center;html=1;verticalAlign=top;shape=mxgraph.electrical.electro-mechanical.selectorSwitch3Position2;elSwitchState=1;fillColor=none;direction=north;" parent="1" vertex="1">
                    <mxGeometry x="370.01" y="478.01" width="28.82" height="47" as="geometry"/>
                </mxCell>
                <mxCell id="21" value="" style="endArrow=none;html=1;strokeWidth=3;" parent="1" edge="1">
                    <mxGeometry width="50" height="50" relative="1" as="geometry">
                        <mxPoint x="371" y="468" as="sourcePoint"/>
                        <mxPoint x="371" y="478" as="targetPoint"/>
                    </mxGeometry>
                </mxCell>
                <mxCell id="22" value="" style="endArrow=none;html=1;strokeWidth=3;" parent="1" edge="1">
                    <mxGeometry width="50" height="50" relative="1" as="geometry">
                        <mxPoint x="384" y="468" as="sourcePoint"/>
                        <mxPoint x="384" y="478" as="targetPoint"/>
                    </mxGeometry>
                </mxCell>
                <mxCell id="23" value="" style="endArrow=none;html=1;strokeWidth=3;" parent="1" edge="1">
                    <mxGeometry width="50" height="50" relative="1" as="geometry">
                        <mxPoint x="290" y="560" as="sourcePoint"/>
                        <mxPoint x="420" y="560" as="targetPoint"/>
                    </mxGeometry>
                </mxCell>
                <mxCell id="30" value="" style="rounded=0;whiteSpace=wrap;html=1;fillColor=none;" parent="1" vertex="1">
                    <mxGeometry x="349.42" y="631.99" width="70" height="35" as="geometry"/>
                </mxCell>
                <mxCell id="31" value="" style="pointerEvents=1;verticalLabelPosition=bottom;shadow=0;dashed=0;align=center;html=1;verticalAlign=top;shape=mxgraph.electrical.electro-mechanical.relay;fillColor=none;direction=south;" parent="1" vertex="1">
                    <mxGeometry x="359.42" y="636.99" width="12.5" height="25" as="geometry"/>
                </mxCell>
                <mxCell id="32" value="" style="pointerEvents=1;verticalLabelPosition=bottom;shadow=0;dashed=0;align=center;html=1;verticalAlign=top;shape=mxgraph.electrical.signal_sources.signal_ground;fillColor=none;" parent="1" vertex="1">
                    <mxGeometry x="364.42" y="679.99" width="15" height="10" as="geometry"/>
                </mxCell>
                <mxCell id="33" value="" style="endArrow=none;html=1;strokeWidth=1;entryX=0.5;entryY=0;entryDx=0;entryDy=0;entryPerimeter=0;exitX=0.5;exitY=0;exitDx=0;exitDy=0;exitPerimeter=0;" parent="1" source="32" target="31" edge="1">
                    <mxGeometry width="50" height="50" relative="1" as="geometry">
                        <mxPoint x="509.42" y="611.99" as="sourcePoint"/>
                        <mxPoint x="559.42" y="561.99" as="targetPoint"/>
                    </mxGeometry>
                </mxCell>
                <mxCell id="34" value="" style="pointerEvents=1;verticalLabelPosition=bottom;shadow=0;dashed=0;align=center;html=1;verticalAlign=top;shape=mxgraph.electrical.electro-mechanical.selectorSwitch3Position2;elSwitchState=1;fillColor=none;direction=north;" parent="1" vertex="1">
                    <mxGeometry x="384.43" y="620" width="28.82" height="47" as="geometry"/>
                </mxCell>
                <mxCell id="35" value="" style="endArrow=none;html=1;strokeWidth=3;entryX=1;entryY=0.02;entryDx=0;entryDy=0;entryPerimeter=0;" parent="1" target="34" edge="1">
                    <mxGeometry width="50" height="50" relative="1" as="geometry">
                        <mxPoint x="385" y="560" as="sourcePoint"/>
                        <mxPoint x="425" y="565" as="targetPoint"/>
                    </mxGeometry>
                </mxCell>
                <mxCell id="36" value="" style="endArrow=none;html=1;strokeWidth=3;" parent="1" edge="1">
                    <mxGeometry width="50" height="50" relative="1" as="geometry">
                        <mxPoint x="620" y="600" as="sourcePoint"/>
                        <mxPoint x="400" y="600" as="targetPoint"/>
                    </mxGeometry>
                </mxCell>
                <mxCell id="37" value="" style="endArrow=none;html=1;strokeWidth=3;" parent="1" edge="1">
                    <mxGeometry width="50" height="50" relative="1" as="geometry">
                        <mxPoint x="399" y="600" as="sourcePoint"/>
                        <mxPoint x="399" y="620" as="targetPoint"/>
                    </mxGeometry>
                </mxCell>
                <mxCell id="38" value="" style="endArrow=none;html=1;strokeWidth=1;entryX=0.5;entryY=1;entryDx=0;entryDy=0;entryPerimeter=0;" parent="1" edge="1">
                    <mxGeometry width="50" height="50" relative="1" as="geometry">
                        <mxPoint x="344.99999999999994" y="700.5" as="sourcePoint"/>
                        <mxPoint x="464.99999999999994" y="700" as="targetPoint"/>
                    </mxGeometry>
                </mxCell>
                <mxCell id="39" value="" style="endArrow=none;html=1;strokeWidth=1;" parent="1" edge="1">
                    <mxGeometry width="50" height="50" relative="1" as="geometry">
                        <mxPoint x="345" y="650" as="sourcePoint"/>
                        <mxPoint x="345" y="700" as="targetPoint"/>
                    </mxGeometry>
                </mxCell>
                <mxCell id="40" value="" style="endArrow=none;html=1;strokeWidth=1;" parent="1" edge="1">
                    <mxGeometry width="50" height="50" relative="1" as="geometry">
                        <mxPoint x="345" y="650" as="sourcePoint"/>
                        <mxPoint x="360" y="650" as="targetPoint"/>
                    </mxGeometry>
                </mxCell>
                <mxCell id="42" value="200W&lt;br&gt;48V→24V" style="rounded=1;whiteSpace=wrap;html=1;fillColor=none;" parent="1" vertex="1">
                    <mxGeometry x="413.25" y="345" width="60" height="30" as="geometry"/>
                </mxCell>
                <mxCell id="43" value="200W&lt;br&gt;48V→48V" style="rounded=1;whiteSpace=wrap;html=1;fillColor=none;" parent="1" vertex="1">
                    <mxGeometry x="413.25" y="384" width="60" height="30" as="geometry"/>
                </mxCell>
                <mxCell id="44" value="" style="endArrow=none;html=1;strokeWidth=3;exitX=1.025;exitY=0.342;exitDx=0;exitDy=0;exitPerimeter=0;entryX=0;entryY=0.5;entryDx=0;entryDy=0;" parent="1" target="42" edge="1">
                    <mxGeometry width="50" height="50" relative="1" as="geometry">
                        <mxPoint x="355.25" y="360.39" as="sourcePoint"/>
                        <mxPoint x="408" y="360" as="targetPoint"/>
                    </mxGeometry>
                </mxCell>
                <mxCell id="45" value="" style="endArrow=none;html=1;strokeWidth=3;" parent="1" edge="1">
                    <mxGeometry width="50" height="50" relative="1" as="geometry">
                        <mxPoint x="395" y="360" as="sourcePoint"/>
                        <mxPoint x="395" y="400" as="targetPoint"/>
                    </mxGeometry>
                </mxCell>
                <mxCell id="46" value="" style="endArrow=none;html=1;strokeWidth=3;" parent="1" edge="1">
                    <mxGeometry width="50" height="50" relative="1" as="geometry">
                        <mxPoint x="393" y="400" as="sourcePoint"/>
                        <mxPoint x="413" y="400" as="targetPoint"/>
                    </mxGeometry>
                </mxCell>
                <mxCell id="47" value="300W&lt;br&gt;48V→12V" style="rounded=1;whiteSpace=wrap;html=1;fillColor=none;" parent="1" vertex="1">
                    <mxGeometry x="335" y="210" width="60" height="30" as="geometry"/>
                </mxCell>
                <mxCell id="48" value="" style="endArrow=none;html=1;strokeWidth=3;" parent="1" edge="1">
                    <mxGeometry width="50" height="50" relative="1" as="geometry">
                        <mxPoint x="290" y="345" as="sourcePoint"/>
                        <mxPoint x="290" y="225" as="targetPoint"/>
                    </mxGeometry>
                </mxCell>
                <mxCell id="50" value="100W&lt;br&gt;USB PD" style="rounded=1;whiteSpace=wrap;html=1;fillColor=none;" parent="1" vertex="1">
                    <mxGeometry x="413.25" y="210" width="60" height="30" as="geometry"/>
                </mxCell>
                <mxCell id="51" value="90W&lt;br&gt;12V→19.5V" style="rounded=1;whiteSpace=wrap;html=1;fillColor=none;" parent="1" vertex="1">
                    <mxGeometry x="413.25" y="250" width="66.75" height="30" as="geometry"/>
                </mxCell>
                <mxCell id="52" value="" style="endArrow=none;html=1;strokeWidth=3;entryX=0;entryY=0.5;entryDx=0;entryDy=0;" parent="1" edge="1">
                    <mxGeometry width="50" height="50" relative="1" as="geometry">
                        <mxPoint x="290" y="225" as="sourcePoint"/>
                        <mxPoint x="335" y="224.8" as="targetPoint"/>
                    </mxGeometry>
                </mxCell>
                <mxCell id="53" value="" style="endArrow=none;html=1;strokeWidth=3;entryX=0;entryY=0.5;entryDx=0;entryDy=0;" parent="1" target="50" edge="1">
                    <mxGeometry width="50" height="50" relative="1" as="geometry">
                        <mxPoint x="395" y="225.08" as="sourcePoint"/>
                        <mxPoint x="410" y="225" as="targetPoint"/>
                    </mxGeometry>
                </mxCell>
                <mxCell id="54" value="" style="endArrow=none;html=1;strokeWidth=3;entryX=0;entryY=0.5;entryDx=0;entryDy=0;" parent="1" edge="1">
                    <mxGeometry width="50" height="50" relative="1" as="geometry">
                        <mxPoint x="405" y="265" as="sourcePoint"/>
                        <mxPoint x="413.25" y="264.83" as="targetPoint"/>
                    </mxGeometry>
                </mxCell>
                <mxCell id="55" value="" style="endArrow=none;html=1;strokeWidth=3;" parent="1" edge="1">
                    <mxGeometry width="50" height="50" relative="1" as="geometry">
                        <mxPoint x="405" y="265" as="sourcePoint"/>
                        <mxPoint x="405" y="225" as="targetPoint"/>
                    </mxGeometry>
                </mxCell>
                <mxCell id="57" value="Jetson Orin" style="rounded=1;whiteSpace=wrap;html=1;strokeWidth=2;fillColor=none;strokeColor=#009900;" parent="1" vertex="1">
                    <mxGeometry x="640" y="202.5" width="90" height="45" as="geometry"/>
                </mxCell>
                <mxCell id="58" value="DEL-PC" style="rounded=1;whiteSpace=wrap;html=1;strokeWidth=2;fillColor=none;strokeColor=#009900;" parent="1" vertex="1">
                    <mxGeometry x="470" y="135" width="90" height="45" as="geometry"/>
                </mxCell>
                <mxCell id="60" value="ディスプレイ" style="rounded=1;whiteSpace=wrap;html=1;fillColor=none;strokeColor=#CCCCFF;" parent="1" vertex="1">
                    <mxGeometry x="625" y="150" width="60" height="30" as="geometry"/>
                </mxCell>
                <mxCell id="61" value="&lt;div style=&quot;text-align: center;&quot;&gt;&lt;span style=&quot;text-align: start; background-color: initial;&quot;&gt;vectornav&lt;/span&gt;&lt;span style=&quot;color: rgba(0, 0, 0, 0); font-family: monospace; font-size: 0px; text-align: start; background-color: initial;&quot;&gt;%3CmxGraphModel%3E%3Croot%3E%3CmxCell%20id%3D%220%22%2F%3E%3CmxCell%20id%3D%221%22%20parent%3D%220%22%2F%3E%3CmxCell%20id%3D%222%22%20value%3D%22%E3%83%87%E3%82%A3%E3%82%B9%E3%83%97%E3%83%AC%E3%82%A4%22%20style%3D%22rounded%3D1%3BwhiteSpace%3Dwrap%3Bhtml%3D1%3BfillColor%3Dnone%3BstrokeColor%3D%23CCCCFF%3B%22%20vertex%3D%221%22%20parent%3D%221%22%3E%3CmxGeometry%20x%3D%22705%22%20y%3D%22145%22%20width%3D%2260%22%20height%3D%2230%22%20as%3D%22geometry%22%2F%3E%3C%2FmxCell%3E%3C%2Froot%3E%3C%2FmxGraphModel%3E&lt;/span&gt;&lt;/div&gt;" style="rounded=1;whiteSpace=wrap;html=1;fillColor=none;strokeColor=#CCCCFF;" parent="1" vertex="1">
                    <mxGeometry x="695" y="150" width="60" height="30" as="geometry"/>
                </mxCell>
                <mxCell id="62" value="USB-CAN" style="rounded=1;whiteSpace=wrap;html=1;fillColor=none;strokeColor=#CCCCFF;" parent="1" vertex="1">
                    <mxGeometry x="750" y="210" width="60" height="30" as="geometry"/>
                </mxCell>
                <mxCell id="63" value="" style="rounded=0;whiteSpace=wrap;html=1;strokeColor=#FF9999;strokeWidth=2;fillColor=none;fontColor=#FFFFFF;" parent="1" vertex="1">
                    <mxGeometry x="700" y="375" width="170" height="170" as="geometry"/>
                </mxCell>
                <mxCell id="64" value="ECU&lt;br&gt;AP-RX62N" style="rounded=1;whiteSpace=wrap;html=1;strokeWidth=2;fillColor=none;strokeColor=#009900;" parent="1" vertex="1">
                    <mxGeometry x="705" y="385" width="90" height="45" as="geometry"/>
                </mxCell>
                <mxCell id="65" value="PSoC" style="rounded=1;whiteSpace=wrap;html=1;strokeWidth=2;fillColor=none;strokeColor=#009900;" parent="1" vertex="1">
                    <mxGeometry x="775" y="465" width="90" height="45" as="geometry"/>
                </mxCell>
                <mxCell id="66" value="角度&lt;br&gt;センサ" style="rounded=1;whiteSpace=wrap;html=1;fillColor=none;strokeColor=#CCCCFF;" parent="1" vertex="1">
                    <mxGeometry x="980" y="442" width="60" height="30" as="geometry"/>
                </mxCell>
                <mxCell id="67" value="電動&lt;br&gt;シリンダ" style="rounded=1;whiteSpace=wrap;html=1;fillColor=none;strokeColor=#CCCCFF;" parent="1" vertex="1">
                    <mxGeometry x="980" y="486.5" width="60" height="30" as="geometry"/>
                </mxCell>
                <mxCell id="68" value="リミット&lt;br&gt;センサ" style="rounded=1;whiteSpace=wrap;html=1;fillColor=none;strokeColor=#CCCCFF;" parent="1" vertex="1">
                    <mxGeometry x="980" y="528" width="60" height="30" as="geometry"/>
                </mxCell>
                <mxCell id="70" value="端子台" style="shape=xor;whiteSpace=wrap;html=1;strokeColor=#CCCCFF;strokeWidth=2;fillColor=none;fontStyle=0;spacingLeft=30;" parent="1" vertex="1">
                    <mxGeometry x="1000" y="260" width="15" height="90" as="geometry"/>
                </mxCell>
                <mxCell id="72" value="" style="endArrow=none;html=1;strokeWidth=3;entryX=-0.035;entryY=0.5;entryDx=0;entryDy=0;entryPerimeter=0;" parent="1" edge="1">
                    <mxGeometry width="50" height="50" relative="1" as="geometry">
                        <mxPoint x="474.25" y="224.96" as="sourcePoint"/>
                        <mxPoint x="637.8500000000001" y="225" as="targetPoint"/>
                    </mxGeometry>
                </mxCell>
                <mxCell id="73" value="" style="endArrow=none;html=1;strokeWidth=3;" parent="1" edge="1">
                    <mxGeometry width="50" height="50" relative="1" as="geometry">
                        <mxPoint x="520" y="265" as="sourcePoint"/>
                        <mxPoint x="480" y="265" as="targetPoint"/>
                    </mxGeometry>
                </mxCell>
                <mxCell id="76" value="DP" style="endArrow=none;html=1;exitX=0.205;exitY=0.012;exitDx=0;exitDy=0;exitPerimeter=0;entryX=0.558;entryY=1.063;entryDx=0;entryDy=0;entryPerimeter=0;" parent="1" edge="1">
                    <mxGeometry width="50" height="50" relative="1" as="geometry">
                        <mxPoint x="658.4499999999999" y="202.03999999999996" as="sourcePoint"/>
                        <mxPoint x="658.48" y="180.89" as="targetPoint"/>
                    </mxGeometry>
                </mxCell>
                <mxCell id="77" value="USB" style="endArrow=none;html=1;exitX=0.205;exitY=0.012;exitDx=0;exitDy=0;exitPerimeter=0;entryX=0.558;entryY=1.063;entryDx=0;entryDy=0;entryPerimeter=0;" parent="1" edge="1">
                    <mxGeometry x="0.0184" width="50" height="50" relative="1" as="geometry">
                        <mxPoint x="709.9999999999999" y="201.49999999999997" as="sourcePoint"/>
                        <mxPoint x="710.03" y="180.35" as="targetPoint"/>
                        <mxPoint as="offset"/>
                    </mxGeometry>
                </mxCell>
                <mxCell id="80" value="終端" style="pointerEvents=1;verticalLabelPosition=bottom;shadow=0;dashed=0;align=center;html=1;verticalAlign=top;shape=mxgraph.electrical.resistors.resistor_2;fillColor=none;" parent="1" vertex="1">
                    <mxGeometry x="810" y="221.5" width="35" height="7" as="geometry"/>
                </mxCell>
                <mxCell id="81" value="L2スイッチ" style="rounded=1;whiteSpace=wrap;html=1;strokeWidth=2;fillColor=none;strokeColor=#009900;" parent="1" vertex="1">
                    <mxGeometry x="715" y="740" width="90" height="45" as="geometry"/>
                </mxCell>
                <mxCell id="82" value="AP" style="rounded=1;whiteSpace=wrap;html=1;strokeWidth=2;fillColor=none;strokeColor=#009900;" parent="1" vertex="1">
                    <mxGeometry x="905" y="740" width="90" height="45" as="geometry"/>
                </mxCell>
                <mxCell id="83" value="" style="shape=link;html=1;exitX=1.006;exitY=0.551;exitDx=0;exitDy=0;exitPerimeter=0;entryX=-0.006;entryY=0.551;entryDx=0;entryDy=0;entryPerimeter=0;" parent="1" source="81" target="82" edge="1">
                    <mxGeometry width="100" relative="1" as="geometry">
                        <mxPoint x="795" y="765" as="sourcePoint"/>
                        <mxPoint x="895" y="765" as="targetPoint"/>
                    </mxGeometry>
                </mxCell>
                <mxCell id="109" value="EtherNet" style="edgeLabel;html=1;align=center;verticalAlign=middle;resizable=0;points=[];" parent="83" vertex="1" connectable="0">
                    <mxGeometry x="-0.2131" y="1" relative="1" as="geometry">
                        <mxPoint as="offset"/>
                    </mxGeometry>
                </mxCell>
                <mxCell id="84" value="" style="endArrow=none;html=1;exitX=1;exitY=0;exitDx=0;exitDy=0;" parent="1" source="65" edge="1">
                    <mxGeometry width="50" height="50" relative="1" as="geometry">
                        <mxPoint x="900" y="478.01" as="sourcePoint"/>
                        <mxPoint x="980" y="465" as="targetPoint"/>
                    </mxGeometry>
                </mxCell>
                <mxCell id="100" value="アナログ" style="edgeLabel;html=1;align=center;verticalAlign=middle;resizable=0;points=[];" parent="84" vertex="1" connectable="0">
                    <mxGeometry x="0.1056" y="4" relative="1" as="geometry">
                        <mxPoint as="offset"/>
                    </mxGeometry>
                </mxCell>
                <mxCell id="86" value="" style="endArrow=none;html=1;exitX=1;exitY=0;exitDx=0;exitDy=0;" parent="1" edge="1">
                    <mxGeometry width="50" height="50" relative="1" as="geometry">
                        <mxPoint x="865" y="500.81" as="sourcePoint"/>
                        <mxPoint x="980" y="500.81" as="targetPoint"/>
                    </mxGeometry>
                </mxCell>
                <mxCell id="101" value="専用I/F" style="edgeLabel;html=1;align=center;verticalAlign=middle;resizable=0;points=[];" parent="86" vertex="1" connectable="0">
                    <mxGeometry x="0.2249" y="5" relative="1" as="geometry">
                        <mxPoint as="offset"/>
                    </mxGeometry>
                </mxCell>
                <mxCell id="87" value="" style="endArrow=none;html=1;exitX=0.735;exitY=0.941;exitDx=0;exitDy=0;exitPerimeter=0;" parent="1" source="63" edge="1">
                    <mxGeometry width="50" height="50" relative="1" as="geometry">
                        <mxPoint x="865" y="535" as="sourcePoint"/>
                        <mxPoint x="980" y="535" as="targetPoint"/>
                    </mxGeometry>
                </mxCell>
                <mxCell id="102" value="デジタル" style="edgeLabel;html=1;align=center;verticalAlign=middle;resizable=0;points=[];" parent="87" vertex="1" connectable="0">
                    <mxGeometry x="0.3882" y="-2" relative="1" as="geometry">
                        <mxPoint as="offset"/>
                    </mxGeometry>
                </mxCell>
                <mxCell id="88" value="" style="endArrow=none;html=1;entryX=0.554;entryY=0.986;entryDx=0;entryDy=0;entryPerimeter=0;" parent="1" target="65" edge="1">
                    <mxGeometry width="50" height="50" relative="1" as="geometry">
                        <mxPoint x="825" y="535" as="sourcePoint"/>
                        <mxPoint x="865" y="485" as="targetPoint"/>
                    </mxGeometry>
                </mxCell>
                <mxCell id="89" value="MD" style="rounded=1;whiteSpace=wrap;html=1;strokeWidth=2;fillColor=none;strokeColor=#009900;" parent="1" vertex="1">
                    <mxGeometry x="585" y="475" width="90" height="45" as="geometry"/>
                </mxCell>
                <mxCell id="91" value="" style="endArrow=none;dashed=1;html=1;" parent="1" edge="1">
                    <mxGeometry width="50" height="50" relative="1" as="geometry">
                        <mxPoint x="845" y="375" as="sourcePoint"/>
                        <mxPoint x="845" y="340" as="targetPoint"/>
                    </mxGeometry>
                </mxCell>
                <mxCell id="92" value="" style="endArrow=none;dashed=1;html=1;entryX=0.062;entryY=0.883;entryDx=0;entryDy=0;entryPerimeter=0;" parent="1" target="70" edge="1">
                    <mxGeometry width="50" height="50" relative="1" as="geometry">
                        <mxPoint x="845" y="340" as="sourcePoint"/>
                        <mxPoint x="845" y="282.5" as="targetPoint"/>
                    </mxGeometry>
                </mxCell>
                <mxCell id="99" value="CAN" style="edgeLabel;html=1;align=center;verticalAlign=middle;resizable=0;points=[];" parent="92" vertex="1" connectable="0">
                    <mxGeometry x="-0.287" y="4" relative="1" as="geometry">
                        <mxPoint as="offset"/>
                    </mxGeometry>
                </mxCell>
                <mxCell id="93" value="終端" style="pointerEvents=1;verticalLabelPosition=bottom;shadow=0;dashed=0;align=center;html=1;verticalAlign=top;shape=mxgraph.electrical.resistors.resistor_2;fillColor=none;direction=north;" parent="1" vertex="1">
                    <mxGeometry x="841" y="375" width="7" height="35" as="geometry"/>
                </mxCell>
                <mxCell id="94" value="" style="endArrow=none;dashed=1;html=1;entryX=1.005;entryY=0.565;entryDx=0;entryDy=0;entryPerimeter=0;exitX=0;exitY=0.5;exitDx=0;exitDy=0;exitPerimeter=0;" parent="1" source="93" target="64" edge="1">
                    <mxGeometry width="50" height="50" relative="1" as="geometry">
                        <mxPoint x="850" y="380" as="sourcePoint"/>
                        <mxPoint x="850" y="335" as="targetPoint"/>
                    </mxGeometry>
                </mxCell>
                <mxCell id="95" value="" style="endArrow=none;dashed=1;html=1;entryX=0;entryY=0.5;entryDx=0;entryDy=0;entryPerimeter=0;exitX=0.767;exitY=-0.004;exitDx=0;exitDy=0;exitPerimeter=0;" parent="1" source="65" target="93" edge="1">
                    <mxGeometry width="50" height="50" relative="1" as="geometry">
                        <mxPoint x="849.5" y="415" as="sourcePoint"/>
                        <mxPoint x="800.45" y="415.42499999999995" as="targetPoint"/>
                    </mxGeometry>
                </mxCell>
                <mxCell id="96" value="" style="endArrow=none;dashed=1;html=1;entryX=0.062;entryY=0.883;entryDx=0;entryDy=0;entryPerimeter=0;" parent="1" edge="1">
                    <mxGeometry width="50" height="50" relative="1" as="geometry">
                        <mxPoint x="655" y="325" as="sourcePoint"/>
                        <mxPoint x="1000.9300000000001" y="324.9999999999999" as="targetPoint"/>
                    </mxGeometry>
                </mxCell>
                <mxCell id="98" value="CAN" style="edgeLabel;html=1;align=center;verticalAlign=middle;resizable=0;points=[];" parent="96" vertex="1" connectable="0">
                    <mxGeometry x="-0.198" y="2" relative="1" as="geometry">
                        <mxPoint as="offset"/>
                    </mxGeometry>
                </mxCell>
                <mxCell id="97" value="" style="endArrow=none;dashed=1;html=1;" parent="1" edge="1">
                    <mxGeometry width="50" height="50" relative="1" as="geometry">
                        <mxPoint x="655" y="475" as="sourcePoint"/>
                        <mxPoint x="654.9399999999999" y="325" as="targetPoint"/>
                    </mxGeometry>
                </mxCell>
                <mxCell id="103" value="&#10;&#10;&#10;緊急停止&#10;ボタン" style="shape=mxgraph.electrical.electro-mechanical.pushbutton;aspect=fixed;elSwitchState=off;spacingBottom=0;spacingTop=0;" parent="1" vertex="1">
                    <mxGeometry x="465" y="690.99" width="40" height="10.67" as="geometry"/>
                </mxCell>
                <mxCell id="104" value="遠隔&lt;br&gt;緊急停止" style="pointerEvents=1;verticalLabelPosition=bottom;shadow=0;dashed=0;align=center;html=1;verticalAlign=top;shape=mxgraph.electrical.electro-mechanical.pushbuttonBreak2;elSwitchState=off;" parent="1" vertex="1">
                    <mxGeometry x="530" y="683.33" width="37.48" height="19.99" as="geometry"/>
                </mxCell>
                <mxCell id="105" value="" style="verticalLabelPosition=bottom;shadow=0;dashed=0;align=center;html=1;verticalAlign=top;shape=mxgraph.electrical.radio.aerial_-_antenna_1;" parent="1" vertex="1">
                    <mxGeometry x="541.24" y="667" width="15" height="18.75" as="geometry"/>
                </mxCell>
                <mxCell id="106" value="" style="endArrow=none;html=1;strokeWidth=1;entryX=0;entryY=0.8;entryDx=0;entryDy=0;exitX=0.813;exitY=0.774;exitDx=0;exitDy=0;exitPerimeter=0;" parent="1" source="103" target="104" edge="1">
                    <mxGeometry width="50" height="50" relative="1" as="geometry">
                        <mxPoint x="505" y="700" as="sourcePoint"/>
                        <mxPoint x="515" y="700" as="targetPoint"/>
                    </mxGeometry>
                </mxCell>
                <mxCell id="107" value="" style="endArrow=none;html=1;strokeWidth=1;" parent="1" edge="1">
                    <mxGeometry width="50" height="50" relative="1" as="geometry">
                        <mxPoint x="740" y="430" as="sourcePoint"/>
                        <mxPoint x="740" y="700" as="targetPoint"/>
                    </mxGeometry>
                </mxCell>
                <mxCell id="108" value="" style="endArrow=none;html=1;strokeWidth=1;" parent="1" edge="1">
                    <mxGeometry width="50" height="50" relative="1" as="geometry">
                        <mxPoint x="567.48" y="699.16" as="sourcePoint"/>
                        <mxPoint x="740" y="699" as="targetPoint"/>
                    </mxGeometry>
                </mxCell>
                <mxCell id="110" value="" style="shape=link;html=1;entryX=0.611;entryY=1;entryDx=0;entryDy=0;entryPerimeter=0;" parent="1" source="81" target="64" edge="1">
                    <mxGeometry width="100" relative="1" as="geometry">
                        <mxPoint x="755" y="735" as="sourcePoint"/>
                        <mxPoint x="909.46" y="769.7950000000001" as="targetPoint"/>
                    </mxGeometry>
                </mxCell>
                <mxCell id="111" value="EtherNet" style="edgeLabel;html=1;align=center;verticalAlign=middle;resizable=0;points=[];rotation=270;" parent="110" vertex="1" connectable="0">
                    <mxGeometry x="-0.2131" y="1" relative="1" as="geometry">
                        <mxPoint as="offset"/>
                    </mxGeometry>
                </mxCell>
                <mxCell id="112" value="" style="endArrow=none;html=1;strokeWidth=3;" parent="1" edge="1">
                    <mxGeometry width="50" height="50" relative="1" as="geometry">
                        <mxPoint x="620" y="520" as="sourcePoint"/>
                        <mxPoint x="620" y="600" as="targetPoint"/>
                    </mxGeometry>
                </mxCell>
                <mxCell id="116" value="" style="endArrow=none;html=1;entryX=0;entryY=0.5;entryDx=0;entryDy=0;exitX=1;exitY=0.5;exitDx=0;exitDy=0;" parent="1" source="57" target="62" edge="1">
                    <mxGeometry width="50" height="50" relative="1" as="geometry">
                        <mxPoint x="780" y="360" as="sourcePoint"/>
                        <mxPoint x="830" y="310" as="targetPoint"/>
                    </mxGeometry>
                </mxCell>
                <mxCell id="117" value="" style="endArrow=none;dashed=1;html=1;entryX=0.062;entryY=0.883;entryDx=0;entryDy=0;entryPerimeter=0;" parent="1" edge="1">
                    <mxGeometry width="50" height="50" relative="1" as="geometry">
                        <mxPoint x="845" y="270.53" as="sourcePoint"/>
                        <mxPoint x="1000.9300000000001" y="270" as="targetPoint"/>
                    </mxGeometry>
                </mxCell>
                <mxCell id="118" value="CAN" style="edgeLabel;html=1;align=center;verticalAlign=middle;resizable=0;points=[];" parent="117" vertex="1" connectable="0">
                    <mxGeometry x="-0.287" y="4" relative="1" as="geometry">
                        <mxPoint as="offset"/>
                    </mxGeometry>
                </mxCell>
                <mxCell id="119" value="" style="endArrow=none;dashed=1;html=1;entryX=1;entryY=0.5;entryDx=0;entryDy=0;entryPerimeter=0;" parent="1" target="80" edge="1">
                    <mxGeometry width="50" height="50" relative="1" as="geometry">
                        <mxPoint x="845" y="270" as="sourcePoint"/>
                        <mxPoint x="845" y="225" as="targetPoint"/>
                    </mxGeometry>
                </mxCell>
                <mxCell id="121" value="駆動制御基板" style="text;html=1;strokeColor=none;fillColor=none;align=center;verticalAlign=middle;whiteSpace=wrap;rounded=0;fontColor=#FF9999;" parent="1" vertex="1">
                    <mxGeometry x="700" y="350" width="85" height="30" as="geometry"/>
                </mxCell>
                <mxCell id="122" value="" style="rounded=0;whiteSpace=wrap;html=1;strokeColor=#FF9999;strokeWidth=2;fillColor=none;fontColor=#FFFFFF;" parent="1" vertex="1">
                    <mxGeometry x="60" y="335" width="170" height="85" as="geometry"/>
                </mxCell>
                <mxCell id="123" value="駆動制御基板" style="text;html=1;strokeColor=none;fillColor=none;align=center;verticalAlign=middle;whiteSpace=wrap;rounded=0;fontColor=#FF9999;" parent="1" vertex="1">
                    <mxGeometry x="60" y="310" width="85" height="30" as="geometry"/>
                </mxCell>
                <mxCell id="124" value="PSoC" style="rounded=1;whiteSpace=wrap;html=1;strokeWidth=2;fillColor=none;strokeColor=#009900;" parent="1" vertex="1">
                    <mxGeometry x="75" y="345" width="90" height="45" as="geometry"/>
                </mxCell>
                <mxCell id="125" value="終端" style="pointerEvents=1;verticalLabelPosition=bottom;shadow=0;dashed=0;align=center;html=1;verticalAlign=top;shape=mxgraph.electrical.resistors.resistor_2;fillColor=none;" parent="1" vertex="1">
                    <mxGeometry x="165" y="361.5" width="35" height="7" as="geometry"/>
                </mxCell>
                <mxCell id="132" value="" style="endArrow=none;html=1;strokeWidth=1;" parent="1" edge="1">
                    <mxGeometry width="50" height="50" relative="1" as="geometry">
                        <mxPoint x="155" y="390" as="sourcePoint"/>
                        <mxPoint x="155" y="508" as="targetPoint"/>
                    </mxGeometry>
                </mxCell>
                <mxCell id="134" value="" style="endArrow=none;dashed=1;html=1;fontColor=#FFFFFF;exitX=1;exitY=0.5;exitDx=0;exitDy=0;exitPerimeter=0;" parent="1" source="125" edge="1">
                    <mxGeometry width="50" height="50" relative="1" as="geometry">
                        <mxPoint x="320" y="335" as="sourcePoint"/>
                        <mxPoint x="265" y="365" as="targetPoint"/>
                    </mxGeometry>
                </mxCell>
                <mxCell id="135" value="CAN" style="edgeLabel;html=1;align=center;verticalAlign=middle;resizable=0;points=[];fontColor=#FFFFFF;" parent="134" vertex="1" connectable="0">
                    <mxGeometry x="0.2943" relative="1" as="geometry">
                        <mxPoint as="offset"/>
                    </mxGeometry>
                </mxCell>
                <mxCell id="136" value="CyberGear&lt;br&gt;(従属輪ステア)" style="rounded=1;whiteSpace=wrap;html=1;strokeWidth=2;fillColor=none;strokeColor=#009900;" vertex="1" parent="1">
                    <mxGeometry x="514" y="345" width="90" height="45" as="geometry"/>
                </mxCell>
                <mxCell id="139" value="USB-CAN" style="rounded=1;whiteSpace=wrap;html=1;fillColor=none;strokeColor=#CCCCFF;" vertex="1" parent="1">
                    <mxGeometry x="690" y="267.5" width="60" height="30" as="geometry"/>
                </mxCell>
                <mxCell id="141" value="" style="endArrow=none;html=1;strokeWidth=3;" edge="1" parent="1">
                    <mxGeometry width="50" height="50" relative="1" as="geometry">
                        <mxPoint x="520" y="264.83" as="sourcePoint"/>
                        <mxPoint x="520" y="230" as="targetPoint"/>
                    </mxGeometry>
                </mxCell>
                <mxCell id="142" value="" style="endArrow=none;html=1;strokeWidth=3;" edge="1" parent="1">
                    <mxGeometry width="50" height="50" relative="1" as="geometry">
                        <mxPoint x="520" y="230.91999999999993" as="sourcePoint"/>
                        <mxPoint x="520" y="215" as="targetPoint"/>
                        <Array as="points">
                            <mxPoint x="525" y="221.09"/>
                        </Array>
                    </mxGeometry>
                </mxCell>
                <mxCell id="143" value="" style="endArrow=none;html=1;strokeWidth=3;" edge="1" parent="1">
                    <mxGeometry width="50" height="50" relative="1" as="geometry">
                        <mxPoint x="520" y="216" as="sourcePoint"/>
                        <mxPoint x="520" y="181" as="targetPoint"/>
                    </mxGeometry>
                </mxCell>
                <mxCell id="144" value="" style="endArrow=none;html=1;strokeWidth=3;" edge="1" parent="1">
                    <mxGeometry width="50" height="50" relative="1" as="geometry">
                        <mxPoint x="473.25" y="361.5" as="sourcePoint"/>
                        <mxPoint x="513.25" y="361.74" as="targetPoint"/>
                    </mxGeometry>
                </mxCell>
                <mxCell id="145" value="終端" style="pointerEvents=1;verticalLabelPosition=bottom;shadow=0;dashed=0;align=center;html=1;verticalAlign=top;shape=mxgraph.electrical.resistors.resistor_2;fillColor=none;" vertex="1" parent="1">
                    <mxGeometry x="655" y="280" width="35" height="7" as="geometry"/>
                </mxCell>
                <mxCell id="146" value="" style="endArrow=none;html=1;entryX=0.817;entryY=0.003;entryDx=0;entryDy=0;entryPerimeter=0;" edge="1" parent="1" target="139">
                    <mxGeometry width="50" height="50" relative="1" as="geometry">
                        <mxPoint x="739" y="225" as="sourcePoint"/>
                        <mxPoint x="755" y="230" as="targetPoint"/>
                    </mxGeometry>
                </mxCell>
                <mxCell id="147" value="" style="endArrow=none;dashed=1;html=1;entryX=0.062;entryY=0.883;entryDx=0;entryDy=0;entryPerimeter=0;" edge="1" parent="1">
                    <mxGeometry width="50" height="50" relative="1" as="geometry">
                        <mxPoint x="570" y="283" as="sourcePoint"/>
                        <mxPoint x="655" y="283.23" as="targetPoint"/>
                    </mxGeometry>
                </mxCell>
                <mxCell id="148" value="CAN(1Mbps)" style="edgeLabel;html=1;align=center;verticalAlign=middle;resizable=0;points=[];" vertex="1" connectable="0" parent="147">
                    <mxGeometry x="-0.287" y="4" relative="1" as="geometry">
                        <mxPoint x="4" y="-4" as="offset"/>
                    </mxGeometry>
                </mxCell>
                <mxCell id="149" value="" style="endArrow=none;dashed=1;html=1;" edge="1" parent="1">
                    <mxGeometry width="50" height="50" relative="1" as="geometry">
                        <mxPoint x="570" y="345" as="sourcePoint"/>
                        <mxPoint x="570" y="280" as="targetPoint"/>
                    </mxGeometry>
                </mxCell>
            </root>
        </mxGraphModel>
    </diagram>
</mxfile>
